<svg xmlns="http://www.w3.org/2000/svg" width="1920" height="3" viewBox="0 0 1920 3"><g><g><g><path fill="#f0c24b" d="M0 0h160v3H0z"/></g><g><path fill="#b5d56a" d="M160 0h160v3H160z"/></g><g><path fill="#ea7066" d="M320 0h160v3H320z"/></g><g><path fill="#84bed6" d="M480 0h160v3H480z"/></g><g><path fill="#a597e7" d="M640 0h160v3H640z"/></g><g><path fill="#ea77ad" d="M800 0h160v3H800z"/></g><g><path fill="#f0c24b" d="M960 0h160v3H960z"/></g><g><path fill="#b5d56a" d="M1120 0h160v3h-160z"/></g><g><path fill="#ea7066" d="M1280 0h160v3h-160z"/></g><g><path fill="#84bed6" d="M1440 0h160v3h-160z"/></g><g><path fill="#a597e7" d="M1600 0h160v3h-160z"/></g><g><path fill="#ea77ad" d="M1760 0h160v3h-160z"/></g></g></g></svg>