<svg xmlns="http://www.w3.org/2000/svg" width="21" height="21" viewBox="0 0 21 21"><g><g><path fill="#fff" d="M10.714 3.205v1.07a6.34 6.34 0 0 1 6.333 6.333h1.07c0-4.084-3.32-7.405-7.403-7.403zm0 1.847V6.12a4.49 4.49 0 0 1 4.485 4.487l1.07-.001a5.561 5.561 0 0 0-5.555-5.555zM10.5.005C4.714.005.007 4.711.007 10.499c0 5.785 4.707 10.492 10.493 10.492a.647.647 0 0 0 0-1.295c-5.073 0-9.199-4.127-9.199-9.197 0-5.073 4.126-9.2 9.199-9.2 5.073 0 9.199 4.127 9.199 9.2 0 2.12-1.128 4.22-2.743 5.109a3.966 3.966 0 0 1-1.901.49c.408-.242.76-.571 1.022-.984.052-.077.12-.145.153-.23.21-.507.229-1.082.357-1.618.156-.684-2.993-2.019-3.266-1.165-.1.315-.251 1.316-.45 1.58-.177.233-.612.123-.884-.11-.718-.611-1.52-1.51-2.223-2.22l.002-.002-.06-.058c-.02-.018-.04-.04-.06-.06v.002c-.71-.704-1.61-1.503-2.22-2.222-.231-.272-.343-.708-.108-.885.263-.2 1.263-.348 1.579-.45.852-.271-.482-3.422-1.167-3.266-.534.127-1.11.148-1.616.356-.086.036-.153.104-.23.155-1.799 1.14-2.031 3.907-.276 5.969a48.929 48.929 0 0 0 2.085 2.296l-.004.004c.02.02.04.039.061.057l.057.061.004-.004c.745.718 1.628 1.776 3.064 2.734 3.021 2.019 5.34 1.455 6.706.706 2.357-1.299 3.412-4.072 3.412-6.244C20.993 4.71 16.286.005 10.5.005z"/></g></g></svg>